<svg xmlns="http://www.w3.org/2000/svg" viewBox="-140 -140 280 280" width="280" height="280">
  <ellipse cx="0" cy="0" rx="100" ry="22" fill="none" stroke="#FF6B00" stroke-width="1.8" opacity="0.45"/>
  <ellipse cx="0" cy="0" rx="100" ry="52" fill="none" stroke="#FF6B00" stroke-width="1.2" opacity="0.28" transform="rotate(40)"/>
  <ellipse cx="0" cy="0" rx="100" ry="18" fill="none" stroke="#FF9A3C" stroke-width="1" opacity="0.3" transform="rotate(75)"/>
  <line x1="0" y1="-108" x2="0" y2="108" stroke="#FF6B00" stroke-width="0.8" stroke-dasharray="3 4" opacity="0.25"/>
  <circle cx="0" cy="-108" r="3.5" fill="#FF6B00" opacity="0.6"/>
  <circle cx="0" cy="108" r="3.5" fill="#FF6B00" opacity="0.35"/>
  <line x1="-32" y1="-36" x2="32" y2="-36" stroke="#FF6B00" stroke-width="7" stroke-linecap="round"/>
  <line x1="0" y1="-36" x2="0" y2="10" stroke="#FF6B00" stroke-width="7" stroke-linecap="round"/>
  <path d="M 28 4 C 28 -10 -24 -10 -24 4 C -24 18 28 18 28 34 C 28 48 -24 48 -24 36" fill="none" stroke="#FF9A3C" stroke-width="5.5" stroke-linecap="round"/>
  <circle cx="100" cy="0" r="4" fill="#FF6B00" opacity="0.85"/>
  <circle cx="86" cy="-14" r="2.8" fill="#FF6B00" opacity="0.5"/>
  <circle cx="72" cy="-26" r="1.6" fill="#FF6B00" opacity="0.25"/>
  <circle cx="-100" cy="0" r="2.5" fill="#FF6B00" opacity="0.25"/>
</svg>
